<svg width="432" height="120" viewBox="0 0 432 120" fill="none" xmlns="http://www.w3.org/2000/svg">
<rect x="10" y="10" width="100" height="100" rx="50" fill="#7000FF"/>
<path d="M68.6603 40L81.6506 62.5C85.4996 69.1667 80.6884 77.5 72.9904 77.5H47.0096C39.3116 77.5 34.5004 69.1667 38.3494 62.5L51.3398 40C55.1888 33.3333 64.8112 33.3333 68.6603 40Z" stroke="white" stroke-width="10"/>
<path d="M125.74 83.5V34.15H157.1V40.03H133.02V55.78H155.63V61.66H133.02V83.5H125.74ZM174.86 84.13C171.126 84.13 168.326 83.08 166.46 80.98C164.64 78.88 163.73 75.8 163.73 71.74V34.15H170.8V71.32C170.8 75.94 172.69 78.25 176.47 78.25C177.03 78.25 177.543 78.2267 178.01 78.18C178.523 78.1333 179.036 78.04 179.55 77.9L179.41 83.57C177.823 83.9433 176.306 84.13 174.86 84.13ZM197.306 84.13C189.046 84.13 184.916 79.5333 184.916 70.34V49.34H191.986V70.41C191.986 73.1633 192.546 75.1933 193.666 76.5C194.786 77.8067 196.56 78.46 198.986 78.46C201.646 78.46 203.793 77.5733 205.426 75.8C207.106 74.0267 207.946 71.6467 207.946 68.66V49.34H215.016V83.5H208.156V78.04C207.036 80.0467 205.543 81.5633 203.676 82.59C201.81 83.6167 199.686 84.13 197.306 84.13ZM241.01 84.13C235.41 84.13 231 82.5667 227.78 79.44C224.56 76.2667 222.95 71.95 222.95 66.49C222.95 62.99 223.65 59.91 225.05 57.25C226.496 54.5433 228.48 52.4433 231 50.95C233.52 49.4567 236.413 48.71 239.68 48.71C244.393 48.71 248.103 50.2267 250.81 53.26C253.516 56.2467 254.87 60.3767 254.87 65.65V68.03H229.81C230.323 75.1233 234.08 78.67 241.08 78.67C243.04 78.67 244.953 78.3667 246.82 77.76C248.733 77.1533 250.53 76.15 252.21 74.75L254.31 79.65C252.77 81.05 250.786 82.1467 248.36 82.94C245.933 83.7333 243.483 84.13 241.01 84.13ZM239.96 53.68C237.02 53.68 234.686 54.59 232.96 56.41C231.233 58.23 230.183 60.6567 229.81 63.69H248.92C248.78 60.5167 247.94 58.0667 246.4 56.34C244.86 54.5667 242.713 53.68 239.96 53.68ZM262.577 83.5V49.34H269.437V55.01C270.604 52.9567 272.191 51.3933 274.197 50.32C276.251 49.2467 278.537 48.71 281.057 48.71C289.131 48.71 293.167 53.2833 293.167 62.43V83.5H286.097V62.85C286.097 59.91 285.514 57.7633 284.347 56.41C283.227 55.0567 281.454 54.38 279.027 54.38C276.181 54.38 273.894 55.29 272.167 57.11C270.487 58.8833 269.647 61.24 269.647 64.18V83.5H262.577ZM317.469 84.13C313.176 84.13 309.979 83.0333 307.879 80.84C305.779 78.6467 304.729 75.4733 304.729 71.32V54.8H298.079V49.34H304.729V39.05H311.799V49.34H322.369V54.8H311.799V70.76C311.799 73.2333 312.313 75.1 313.339 76.36C314.413 77.62 316.139 78.25 318.519 78.25C319.266 78.25 319.989 78.18 320.689 78.04C321.389 77.8533 322.089 77.6433 322.789 77.41L323.909 82.73C323.209 83.15 322.229 83.4767 320.969 83.71C319.756 83.99 318.589 84.13 317.469 84.13ZM350.666 84.13C345.953 84.13 341.869 83.1033 338.416 81.05C334.963 78.95 332.279 76.01 330.366 72.23C328.499 68.4033 327.566 63.9233 327.566 58.79C327.566 53.61 328.499 49.13 330.366 45.35C332.279 41.57 334.963 38.6533 338.416 36.6C341.869 34.5467 345.953 33.52 350.666 33.52C355.333 33.52 359.393 34.5467 362.846 36.6C366.346 38.6533 369.029 41.57 370.896 45.35C372.809 49.13 373.766 53.5867 373.766 58.72C373.766 63.9 372.809 68.4033 370.896 72.23C369.029 76.01 366.346 78.95 362.846 81.05C359.393 83.1033 355.333 84.13 350.666 84.13ZM350.666 77.83C355.566 77.83 359.369 76.1733 362.076 72.86C364.829 69.5 366.206 64.81 366.206 58.79C366.206 52.77 364.853 48.1033 362.146 44.79C359.439 41.4767 355.613 39.82 350.666 39.82C345.766 39.82 341.939 41.4767 339.186 44.79C336.479 48.1033 335.126 52.77 335.126 58.79C335.126 64.81 336.479 69.5 339.186 72.86C341.939 76.1733 345.766 77.83 350.666 77.83ZM399.973 84.13C396.1 84.13 392.553 83.64 389.333 82.66C386.113 81.6333 383.383 80.21 381.143 78.39L383.453 72.65C385.787 74.4233 388.283 75.7533 390.943 76.64C393.603 77.5267 396.613 77.97 399.973 77.97C403.94 77.97 406.857 77.27 408.723 75.87C410.637 74.4233 411.593 72.5567 411.593 70.27C411.593 68.4033 410.917 66.9333 409.563 65.86C408.21 64.74 405.947 63.8533 402.773 63.2L395.283 61.66C390.85 60.7267 387.537 59.1867 385.343 57.04C383.197 54.8933 382.123 52 382.123 48.36C382.123 45.42 382.893 42.83 384.433 40.59C386.02 38.35 388.213 36.6233 391.013 35.41C393.813 34.15 397.033 33.52 400.673 33.52C404.033 33.52 407.137 34.0333 409.983 35.06C412.877 36.04 415.327 37.4867 417.333 39.4L414.953 44.93C410.987 41.43 406.203 39.68 400.603 39.68C397.15 39.68 394.397 40.45 392.343 41.99C390.337 43.53 389.333 45.5833 389.333 48.15C389.333 50.11 389.963 51.6733 391.223 52.84C392.483 54.0067 394.583 54.8933 397.523 55.5L404.943 57.04C409.61 58.02 413.087 59.5367 415.373 61.59C417.66 63.5967 418.803 66.3267 418.803 69.78C418.803 72.6733 418.033 75.1933 416.493 77.34C414.953 79.4867 412.783 81.1667 409.983 82.38C407.183 83.5467 403.847 84.13 399.973 84.13Z" fill="black"/>
</svg>
